<?xml version="1.0" encoding="UTF-8" standalone="no"?>
<!-- Created with Inkscape (http://www.inkscape.org/) -->

<svg
   xmlns:dc="http://purl.org/dc/elements/1.1/"
   xmlns:cc="http://creativecommons.org/ns#"
   xmlns:rdf="http://www.w3.org/1999/02/22-rdf-syntax-ns#"
   xmlns:svg="http://www.w3.org/2000/svg"
   xmlns="http://www.w3.org/2000/svg"
   xmlns:sodipodi="http://sodipodi.sourceforge.net/DTD/sodipodi-0.dtd"
   xmlns:inkscape="http://www.inkscape.org/namespaces/inkscape"
   version="1.1"
   id="svg2"
   xml:space="preserve"
   width="401.73999"
   height="401.73999"
   viewBox="0 0 401.74001 401.74"
   sodipodi:docname="uk.svg"
   inkscape:version="0.92.5 (2060ec1f9f, 2020-04-08)"><metadata
     id="metadata8"><rdf:RDF><cc:Work
         rdf:about=""><dc:format>image/svg+xml</dc:format><dc:type
           rdf:resource="http://purl.org/dc/dcmitype/StillImage" /><dc:title></dc:title></cc:Work></rdf:RDF></metadata><defs
     id="defs6" /><sodipodi:namedview
     pagecolor="#ffffff"
     bordercolor="#666666"
     borderopacity="1"
     objecttolerance="10"
     gridtolerance="10"
     guidetolerance="10"
     inkscape:pageopacity="0"
     inkscape:pageshadow="2"
     inkscape:window-width="1920"
     inkscape:window-height="1027"
     id="namedview4"
     showgrid="false"
     inkscape:zoom="1.47064"
     inkscape:cx="-42.836476"
     inkscape:cy="251.76478"
     inkscape:window-x="0"
     inkscape:window-y="0"
     inkscape:window-maximized="1"
     inkscape:current-layer="g12"
     fit-margin-top="0"
     fit-margin-left="0"
     fit-margin-right="0"
     fit-margin-bottom="0" /><g
     id="g10"
     inkscape:groupmode="layer"
     inkscape:label="ink_ext_XXXXXX"
     transform="matrix(1.3333333,0,0,-1.3333333,0,478.22544)"><g
       id="g12"
       transform="scale(0.1)"><path
         d="m 1097.68,1710.2904 c -2.42,-86.96 -20.83,-181 -96.77,-235.24 -59.844,-39.91 -133.008,-39.91 -149.637,-39.91 -252.718,0 -242.742,222.8 -246.07,292.63 v 877.88 H 0 v -867.91 c 0,-129.69 0,-275.99 53.20701,-399.029 29.9219,-73.16 79.80499,-139.66 139.66399,-192.871 176.234,-159.60901 409.008,-196.17901 635.125,-196.17901 219.474,0 492.144,36.57 668.394,189.53101 56.52,46.558 159.61,166.269 196.18,359.138 5.14,35.98 7.72,76.34 9.02,109.32 l 556.61,-606.739 h 754.85 l -781.45,811.369 718.26,794.75 h -738.21 l -508.76,-638.44 -0.01,1242.08 h -605.2"
         style="fill:#c61a27;fill-opacity:1;fill-rule:nonzero;stroke:none"
         id="path20"
         inkscape:connector-curvature="0" /></g></g></svg>